<svg class="icon" width="200" height="200" viewBox="0 0 1024 1024" xmlns="http://www.w3.org/2000/svg"><path d="M225.173 149.397l2.091-.064c2.261.043 4.181.214 6.101.598l2.987.725 3.968.939c23.893 6.186 70.187 26.645 97.792 45.653a363.755 363.755 0 01173.653-44.459c200.107 0 362.902 161.92 362.902 360.96 0 198.998-162.795 360.918-362.88 360.918-203.243 0-362.454-162.411-362.454-369.728 0-15.147 7.531-82.027 14.187-100.779 1.813-8.661 12.565-51.413 53.717-103.51 1.494-20.202 3.627-71.786-14.208-108.671a33.984 33.984 0 01-2.453-9.814l-.256-3.072-.299-2.666a25.344 25.344 0 014.822-15.744 27.307 27.307 0 0119.37-11.264l.96-.022 2.091-.064zM512 213.333c-66.41 0-127.787 21.675-177.344 58.304a797.477 797.477 0 00-28.267-19.285c-11.84-7.68-20.906-13.077-27.2-16.192 2.198 12.715 3.286 23.19 3.286 31.445 0 7.702-.96 25.302-2.859 52.758l-.299 4.373A297.408 297.408 0 00213.333 512c0 164.95 133.718 298.667 298.667 298.667S810.667 676.949 810.667 512 676.949 213.333 512 213.333zM501.333 384a32 32 0 0132 32v64a32 32 0 01-64 0v-64a32 32 0 0132-32zM672 384a32 32 0 0132 32v64a32 32 0 01-64 0v-64a32 32 0 0132-32zM263.765 170.88c.086.79.15 1.557.192 2.347l.192 1.429-.213-3.413-.17-.363z"/></svg>