<svg class="icon" width="200" height="200" viewBox="0 0 1024 1024" xmlns="http://www.w3.org/2000/svg"><path d="M787.968 472.277L505.173 756.736a151.488 151.488 0 01-215.168 0c-59.52-59.883-59.52-157.077 0-216.96l287.019-288.725a91.35 91.35 0 01129.77 0 93.099 93.099 0 010 131.072L428.033 662.507a31.701 31.701 0 01-45.099 0 32.64 32.64 0 010-45.91L633.067 364.95l-45.398-45.12-250.133 251.648a96.64 96.64 0 000 136.171 95.701 95.701 0 00135.893 0l278.72-280.405a157.099 157.099 0 000-221.312 155.35 155.35 0 00-220.522 0L244.608 494.635c-84.373 84.864-84.373 222.378 0 307.221a215.488 215.488 0 00305.92 0l282.837-284.459-45.397-45.12z"/></svg>