<svg class="icon" width="200" height="200" viewBox="0 0 1024 1024" xmlns="http://www.w3.org/2000/svg"><path d="M810.667 277.333a64 64 0 0164 64v405.334a64 64 0 01-64 64H213.333a64 64 0 01-64-64V341.333a64 64 0 0164-64h597.334zm0 64H213.333v405.334h597.334V341.333zm-149.355 102.4v88.576l.021 1.024a149.333 149.333 0 01-272.64 84.267l73.451-14.997a85.333 85.333 0 00135.19-69.27v-.021l-25.6.021 22.57-22.592v-.021l67.008-66.987zM512 384c51.2 0 96.384 25.77 123.307 65.067l-73.43 15.018a85.333 85.333 0 00-135.21 69.248h25.578L380.843 604.8l-18.176 18.133v-89.6A149.333 149.333 0 01512 384zm309.333-202.667v64h-256v-64h256z"/></svg>