<svg class="icon" viewBox="0 0 1025 1024" xmlns="http://www.w3.org/2000/svg" width="200.195" height="200"><defs><style/></defs><path d="M1015.5 848.538L870.299 588.8c-11.956-21.274-26.394-25.6-51.2-25.6H716.723c-9.42 0-25.574 16.358-25.574 25.6s16.153 25.6 25.574 25.6h102.375c12.313 0 19.66 15.027 25.6 25.6l127.948 230.4c-.486 14.848-8.396 24.422-25.574 25.6H76.928c-12.083 0-24.909-7.373-25.6-25.6C62.95 841.626 179.277 640 179.277 640c5.939-10.573 13.286-25.6 25.6-25.6H307.25c9.447 0 26.215-5.683 25.6-25.6-.614-19.891-16.153-25.6-25.6-25.6H204.902c-24.806 0-39.244 4.326-51.2 25.6L8.525 848.538c-11.7 20.812-11.315 45.465 1.024 65.945 12.339 20.48 34.253 32.717 58.547 32.717h887.808c24.294 0 46.208-12.237 58.573-32.691 12.339-20.48 12.723-45.133 1.024-65.971zm-503.935-58.983l13.286-15.872c9.293-11.11 227.251-273.664 226.509-445.465C750.771 189.568 643.405 76.8 512 76.8c-131.994 0-239.36 112.794-239.36 251.469 0 171.725 216.525 434.278 225.715 445.337l13.21 15.95zM426.496 294.4c0-46.234 38.298-83.712 85.504-83.712s85.478 37.478 85.478 83.712-38.272 83.712-85.478 83.712c-47.206 0-85.504-37.478-85.504-83.712z"/></svg>