<svg class="icon" viewBox="0 0 1024 1024" xmlns="http://www.w3.org/2000/svg" width="200" height="200"><defs><style/></defs><path d="M747.502 510.622s-52.299-24.535-39.264-78.567c0 0-107.55 14.257-117.869 117.83 0 0 193.876 88.687 157.133 196.317 0 0-78.803 205.06-157.133 274.923 0 0-188.52 46.352 0-235.66 0 0 90.066-114.206-196.514-196.316 0 0-169.42-28.237 78.645-235.581 27.016-27.016 16.895-109.087-39.303-78.606 0 0-201.436 156.7-196.514 0 0 0 198.484-209.589 392.95-78.566 0 0 132.125 71.714 196.475 196.396 0 0 141.891 14.965 157.21 78.566 0 0 32.963 77.7-235.816 39.264zm19.69-314.187A98.218 98.218 0 11767.115 0a98.218 98.218 0 01.079 196.435zm-453.91 303.869l-19.613 34.025a78.606 78.606 0 01-107.354 28.71L84.158 504.163A78.527 78.527 0 0155.41 396.848l19.651-33.986a78.606 78.606 0 01107.355-28.749l102.116 58.915c37.53 21.66 50.448 69.706 28.749 107.276zm-194.467 167.41H315.29c-7.916-44.422 39.303-39.341 39.303-39.341 79.708-8.389 78.605 78.566 78.605 78.566-27.252 101.84-196.514 78.527-196.514 78.527C16.107 797.95 40.21 746.202 40.21 746.202c-9.53-94.988 78.605-78.487 78.605-78.487z"/></svg>