<svg class="icon" viewBox="0 0 1024 1024" xmlns="http://www.w3.org/2000/svg" width="200" height="200"><defs><style/></defs><path d="M816.459 1020.79c3.04 0 6.18-.538 9.348-1.529a250.99 250.99 0 01-27.58 1.529h18.232zm-46.8-319.863c-24.047 0-43.554 19.43-43.554 43.404 0 23.975 19.507 43.405 43.555 43.405 24.072 0 43.58-19.43 43.58-43.405 0-23.974-19.507-43.404-43.58-43.404zm28.567-123.551c-108.821 0-197.04 87.845-197.04 196.241s88.219 196.291 197.04 196.291c108.795 0 197.013-87.896 197.013-196.29.001-108.4-88.217-196.242-197.013-196.242zM893.1 888.989a21.824 21.824 0 01-15.412-6.352l-63.83-63.606c-12.98 7.644-28.042 12.087-44.198 12.087-48.12 0-87.13-38.838-87.13-86.787 0-47.923 39.01-86.785 87.13-86.785s87.133 38.862 87.133 86.785c0 16.083-4.467 31.097-12.134 44.026l63.851 63.581c3.921 3.945 6.38 9.357 6.38 15.362 0 11.987-9.755 21.69-21.79 21.69zM206.69 181.14c24.077 0 50.837-26.86 50.837-50.837V54.046c0-23.978-16.731-50.837-50.837-50.837-29.19 0-50.837 26.859-50.837 50.837v76.256c0 23.978 26.76 50.837 50.837 50.837zm228.764 0c41.207 0 50.838-26.86 50.838-50.837V54.046c0-23.978-14.2-50.837-50.838-50.837-35.992 0-50.837 26.859-50.837 50.837v76.256c0 23.978 17.698 50.837 50.837 50.837zm228.764 0c33.112 0 50.837-26.86 50.837-50.837V54.046c0-23.978-17.723-50.837-50.837-50.837-29.19 0-50.838 26.859-50.838 50.837v76.256c.001 23.978 26.785 50.837 50.838 50.837zm152.51 838.797c3.025 0 6.15-.535 9.303-1.52a250.387 250.387 0 01-27.447 1.52h18.144zm-265.08-245.99c0-135.828 110.558-245.941 246.936-245.941 24.572 0 48.299 3.593 70.7 10.252l-1.72-382.536c0-23.982-26.758-50.838-50.836-50.838H765.89v50.838c0 47.956-53.543 76.254-101.672 76.254s-101.672-28.297-101.672-76.254v-50.838h-25.42v50.838c0 47.956-53.914 76.254-101.67 76.254-77.572 0-101.672-53.715-101.672-101.671v-25.42h-25.42v25.419c-.05 48.203-38.275 101.275-103.982 101.275-48.13 0-99.364-36.191-99.364-101.275v-25.42h-25.42c-24.077 0-50.837 26.857-50.837 50.839v806.331c0 23.98 26.758 57.884 50.837 57.884h718.984c-136.374 0-246.936-110.112-246.936-245.99zM181.27 384.485s530.159 2.333 531.524 0c24.599-.894 53.095 14.645 53.095 50.837 0 34.205-26.757 50.836-50.837 50.836H181.271c-24.078 0-50.837-12.559-50.837-50.836.001-32.468 26.759-50.837 50.837-50.837zm228.764 508.364H181.271c-20.058 0-50.837-11.418-50.837-50.838 0-29.835 30.78-53.568 50.837-53.568l228.764 2.731c20.057 0 50.838 11.022 50.838 50.837 0 31.574-30.781 50.838-50.838 50.838zm50.838-203.347H181.271c-24.078 0-50.837-15.885-50.837-50.836 0-38.575 26.758-50.837 50.837-50.837h279.601c24.075 0 50.836 18.964 50.836 50.837 0 23.979-26.76 50.836-50.835 50.836z"/></svg>