<svg class="icon" viewBox="0 0 1024 1024" xmlns="http://www.w3.org/2000/svg" width="200" height="200"><defs><style/></defs><path d="M801.178 793.216c0 21.328-17.281 38.618-38.609 38.622H229.771c-21.334 0-38.627-17.294-38.627-38.622V229.391c0-21.333 17.293-38.622 38.627-38.622H627.58V63.875H179.315a96.11 96.11 0 00-67.964 28.155 96.098 96.098 0 00-28.15 67.968v702.605c0 53.087 43.032 96.119 96.114 96.119h633.692c53.089 0 96.121-43.032 96.121-96.119V675.982h-107.95v117.234zm0 0"/><path d="M460.682 359.716v106.032h340.27L689.882 576.82l43.384 43.383 207.461-207.474-207.461-207.453-43.384 43.373 111.07 111.068h-340.27zm0 0"/></svg>